STARTFONT 2.1
FONT -MIT-31VR KST-Medium-R-Normal--31-11-200-200-P-15-ISO8859-1
SIZE 11 200 200
FONTBOUNDINGBOX 25 31 -2 -6
STARTPROPERTIES 17
ADD_STYLE_NAME ""
AVERAGE_WIDTH 15
CHARSET_ENCODING "1"
CHARSET_REGISTRY "ISO8859"
DEFAULT_CHAR 0
FAMILY "31VR KST"
FONT_ASCENT 25
FONT_DESCENT 6
FOUNDRY "MIT"
PIXEL_SIZE 31
POINT_SIZE 11
RESOLUTION_X 200
RESOLUTION_Y 200
SETWIDTH_NAME "Normal"
SLANT "R"
SPACING "P"
WEIGHT_NAME "Medium"
ENDPROPERTIES
CHARS 127
STARTCHAR char1
ENCODING 1
SWIDTH 1260 0
DWIDTH 14 0
BBX 12 31 0 -6
BITMAP
0000
0000
0000
0600
0600
0600
0600
0600
0600
0600
0600
0600
0600
0600
0600
0600
0600
0600
C630
E670
76E0
3FC0
1F80
0F00
0600
0000
0000
0000
0000
0000
0000
ENDCHAR
STARTCHAR char2
ENCODING 2
SWIDTH 2340 0
DWIDTH 26 0
BBX 23 31 0 -6
BITMAP
000000
000000
000000
000000
000000
000000
000000
000000
000000
00000C
000018
000030
000070
000060
1F00C0
3FC1C0
60F380
C03F80
C01F00
C01E00
C01C00
C07600
60E606
3F83FC
1F01F8
000000
000000
000000
000000
000000
000000
ENDCHAR
STARTCHAR char3
ENCODING 3
SWIDTH 2070 0
DWIDTH 23 0
BBX 20 31 0 -6
BITMAP
000000
000000
0007E0
000FF0
001C70
003830
007030
00E030
00E070
00C0E0
0180C0
0181C0
038380
030780
070780
060380
0E01C0
0C00E0
1C0070
180030
380030
38C070
30E0E0
70FFC0
701F00
700000
E00000
E00000
E00000
E00000
000000
ENDCHAR
STARTCHAR char4
ENCODING 4
SWIDTH 1980 0
DWIDTH 22 0
BBX 19 31 0 -6
BITMAP
000000
000000
000000
000000
000000
000000
000000
000000
000000
00E000
01F000
01B000
03B800
031800
071C00
060C00
0E0E00
0C0600
1C0700
180300
380380
300180
7001C0
6000C0
E000E0
000000
000000
000000
000000
000000
000000
ENDCHAR
STARTCHAR char5
ENCODING 5
SWIDTH 1260 0
DWIDTH 14 0
BBX 11 31 0 -6
BITMAP
0000
0000
0000
0000
0000
0000
0000
0000
0000
0000
0000
0000
0000
FFE0
FFE0
00E0
0060
0060
0060
0060
0060
0000
0000
0000
0000
0000
0000
0000
0000
0000
0000
ENDCHAR
STARTCHAR char6
ENCODING 6
SWIDTH 1260 0
DWIDTH 14 0
BBX 11 31 0 -6
BITMAP
0000
0000
0000
0000
0000
03C0
0780
0E00
1C00
3800
7000
7000
F000
FFE0
FFE0
F000
7000
7000
3800
1C00
0E00
0780
03C0
0000
0000
0000
0000
0000
0000
0000
0000
ENDCHAR
STARTCHAR char7
ENCODING 7
SWIDTH 1890 0
DWIDTH 21 0
BBX 18 31 0 -6
BITMAP
000000
000000
000000
000000
000000
000000
000000
000000
000000
000000
FFFF00
FFFF80
381DC0
381C00
381C00
381C00
381C00
381C00
381C00
381C00
381C00
381C00
381C00
381C00
F81E00
000F00
000000
000000
000000
000000
000000
ENDCHAR
STARTCHAR char8
ENCODING 8
SWIDTH 1620 0
DWIDTH 18 0
BBX 14 31 0 -6
BITMAP
0000
0000
0000
0000
C000
E000
F000
3800
1C00
0C00
0E00
0600
0700
0700
0700
0F80
1980
31C0
70C0
60E0
E060
C070
C038
C01C
000C
0000
0000
0000
0000
0000
0000
ENDCHAR
STARTCHAR char9
ENCODING 9
SWIDTH 90 0
DWIDTH 1 0
BBX 1 31 0 -6
BITMAP
00
00
00
00
00
00
00
00
00
00
00
00
00
00
00
00
00
00
00
00
00
00
00
00
00
00
00
00
00
00
00
ENDCHAR
STARTCHAR char10
ENCODING 10
SWIDTH 90 0
DWIDTH 1 0
BBX 1 31 0 -6
BITMAP
00
00
00
00
00
00
00
00
00
00
00
00
00
00
00
00
00
00
00
00
00
00
00
00
00
00
00
00
00
00
00
ENDCHAR
STARTCHAR char11
ENCODING 11
SWIDTH 1260 0
DWIDTH 14 0
BBX 12 31 0 -6
BITMAP
0000
0000
0000
0600
0F00
1F80
3FC0
76E0
E670
C630
0600
0600
0600
0600
0600
0600
0600
0600
0600
0600
0600
0600
0600
0600
0600
0000
0000
0000
0000
0000
0000
ENDCHAR
STARTCHAR char12
ENCODING 12
SWIDTH 90 0
DWIDTH 1 0
BBX 1 31 0 -6
BITMAP
00
00
00
00
00
00
00
00
00
00
00
00
00
00
00
00
00
00
00
00
00
00
00
00
00
00
00
00
00
00
00
ENDCHAR
STARTCHAR char13
ENCODING 13
SWIDTH 90 0
DWIDTH 1 0
BBX 1 31 0 -6
BITMAP
00
00
00
00
00
00
00
00
00
00
00
00
00
00
00
00
00
00
00
00
00
00
00
00
00
00
00
00
00
00
00
ENDCHAR
STARTCHAR char14
ENCODING 14
SWIDTH 2520 0
DWIDTH 28 0
BBX 24 31 1 -6
BITMAP
000000
000000
000000
000000
000000
000000
000000
000000
000000
1F81F8
30C30C
606606
E03C07
E03C07
E03C07
E03C07
E03C07
E03C07
E03C07
606606
30E70C
1FC3F8
000000
000000
000000
000000
000000
000000
000000
000000
000000
ENDCHAR
STARTCHAR char15
ENCODING 15
SWIDTH 1530 0
DWIDTH 17 0
BBX 14 31 0 -6
BITMAP
0000
1C00
0E00
0700
0380
01C0
00E0
0070
0038
001C
001C
001C
001C
3FFC
7FFC
E01C
C00C
C00C
C00C
C00C
C00C
C01C
E018
7FF0
3FE0
0000
0000
0000
0000
0000
0000
ENDCHAR
STARTCHAR char16
ENCODING 16
SWIDTH 1890 0
DWIDTH 21 0
BBX 17 31 1 -6
BITMAP
000000
000000
000000
000000
000000
000000
000000
000000
000000
1FFF80
3FFF80
780000
F00000
E00000
E00000
E00000
E00000
F00000
780000
3FFF80
1FFF80
000000
000000
000000
000000
000000
000000
000000
000000
000000
000000
ENDCHAR
STARTCHAR char17
ENCODING 17
SWIDTH 1980 0
DWIDTH 22 0
BBX 17 31 2 -6
BITMAP
000000
000000
000000
000000
000000
000000
000000
000000
000000
FFFC00
FFFE00
000F00
000780
000380
000380
000380
000380
000780
000F00
FFFE00
FFFC00
000000
000000
000000
000000
000000
000000
000000
000000
000000
000000
ENDCHAR
STARTCHAR char18
ENCODING 18
SWIDTH 1440 0
DWIDTH 16 0
BBX 13 31 0 -6
BITMAP
0000
0000
0000
0000
1FC0
3FE0
6030
C018
C018
C018
C018
C018
C018
C018
C018
C018
C018
C018
C018
C018
C018
C018
C018
C018
C018
0000
0000
0000
0000
0000
0000
ENDCHAR
STARTCHAR char19
ENCODING 19
SWIDTH 1440 0
DWIDTH 16 0
BBX 13 31 0 -6
BITMAP
0000
0000
0000
0000
C018
C018
C018
C018
C018
C018
C018
C018
C018
C018
C018
C018
C018
C018
C018
C018
C018
C018
6030
3FE0
1FC0
0000
0000
0000
0000
0000
0000
ENDCHAR
STARTCHAR char20
ENCODING 20
SWIDTH 1980 0
DWIDTH 22 0
BBX 19 31 0 -6
BITMAP
000000
000000
000000
FE0FE0
380380
380380
180300
180700
1C0700
0FFE00
0FFE00
0C0E00
061C00
031800
061C00
033800
01B800
01F000
01F000
00F000
00E000
00E000
006000
006000
004000
000000
000000
000000
000000
000000
000000
ENDCHAR
STARTCHAR char21
ENCODING 21
SWIDTH 1620 0
DWIDTH 18 0
BBX 15 31 0 -6
BITMAP
0000
0000
0000
7FFE
7FF8
6038
6038
0038
0038
0038
0238
0238
0338
03F8
03F8
0338
0238
0238
0038
0038
0038
C038
C038
FFF8
FFFE
0000
0000
0000
0000
0000
0000
ENDCHAR
STARTCHAR char22
ENCODING 22
SWIDTH 1710 0
DWIDTH 19 0
BBX 15 31 1 -6
BITMAP
0000
0000
0000
0000
0000
0000
0000
1FF0
3FF8
701C
F83E
D836
CC66
C7C6
C386
C386
C7C6
CC66
D836
F83E
701C
3FF8
1FF0
0000
0000
0000
0000
0000
0000
0000
0000
ENDCHAR
STARTCHAR char23
ENCODING 23
SWIDTH 1890 0
DWIDTH 21 0
BBX 18 31 0 -6
BITMAP
000000
000000
000000
000000
000000
000000
000000
000000
000000
000000
0C0C00
180600
300300
600180
FFFFC0
FFFFC0
FFFFC0
600180
300300
180600
0C0C00
000000
000000
000000
000000
000000
000000
000000
000000
000000
000000
ENDCHAR
STARTCHAR char24
ENCODING 24
SWIDTH 1620 0
DWIDTH 18 0
BBX 16 31 0 -6
BITMAP
0000
0000
0000
0000
0000
0000
0000
0000
0000
0600
0C00
1800
3000
6000
FFFF
FFFF
6000
3000
1800
0C00
0600
0000
0000
0000
0000
0000
0000
0000
0000
0000
0000
ENDCHAR
STARTCHAR char25
ENCODING 25
SWIDTH 1620 0
DWIDTH 18 0
BBX 16 31 0 -6
BITMAP
0000
0000
0000
0000
0000
0000
0000
0000
0000
0060
0030
0018
000C
0006
FFFF
FFFF
0006
000C
0018
0030
0060
0000
0000
0000
0000
0000
0000
0000
0000
0000
0000
ENDCHAR
STARTCHAR char26
ENCODING 26
SWIDTH 1260 0
DWIDTH 14 0
BBX 11 31 0 -6
BITMAP
0000
0000
0000
0000
0020
0060
0060
00E0
00C0
0180
FFE0
FFE0
FFE0
0700
0E00
FFE0
FFE0
FFE0
3000
6000
E000
C000
C000
8000
0000
0000
0000
0000
0000
0000
0000
ENDCHAR
STARTCHAR char27
ENCODING 27
SWIDTH 1530 0
DWIDTH 17 0
BBX 14 31 0 -6
BITMAP
0000
0000
0000
0000
0000
0300
0300
0780
0780
0FC0
1FE0
3CF0
7878
F03C
F03C
F03C
7878
3CF0
1FE0
0FC0
0780
0780
0300
0300
0000
0000
0000
0000
0000
0000
0000
ENDCHAR
STARTCHAR char28
ENCODING 28
SWIDTH 1620 0
DWIDTH 18 0
BBX 15 31 0 -6
BITMAP
0000
0000
0000
0000
0000
0000
000E
003C
00F0
03C0
0F00
3C00
7000
E000
E000
7000
3C00
8F00
E3C0
78F0
1E3C
078E
01C0
0000
0000
0000
0000
0000
0000
0000
0000
ENDCHAR
STARTCHAR char29
ENCODING 29
SWIDTH 1800 0
DWIDTH 20 0
BBX 15 31 2 -6
BITMAP
0000
0000
0000
0000
0000
0000
0000
E000
7800
1E00
0780
01E0
0078
001C
000E
000E
001C
0078
01E2
078E
1E3C
78F0
E3C0
0700
0000
0000
0000
0000
0000
0000
0000
ENDCHAR
STARTCHAR char30
ENCODING 30
SWIDTH 1260 0
DWIDTH 14 0
BBX 11 31 0 -6
BITMAP
0000
0000
0000
0000
0000
0000
0000
FFE0
FFE0
0000
0000
0000
FFE0
FFE0
0000
0000
0000
FFE0
FFE0
0000
0000
0000
0000
0000
0000
0000
0000
0000
0000
0000
0000
ENDCHAR
STARTCHAR char31
ENCODING 31
SWIDTH 1980 0
DWIDTH 22 0
BBX 19 31 0 -6
BITMAP
000000
000000
000000
000000
000000
000000
000000
000000
000000
E000E0
6000C0
7001C0
300180
380380
180300
1C0700
0C0600
0E0E00
060C00
071C00
031800
03B800
01B000
01F000
00E000
000000
000000
000000
000000
000000
000000
ENDCHAR
STARTCHAR char32
ENCODING 32
SWIDTH 990 0
DWIDTH 11 0
BBX 1 31 0 -6
BITMAP
00
00
00
00
00
00
00
00
00
00
00
00
00
00
00
00
00
00
00
00
00
00
00
00
00
00
00
00
00
00
00
ENDCHAR
STARTCHAR char33
ENCODING 33
SWIDTH 720 0
DWIDTH 8 0
BBX 4 31 1 -6
BITMAP
00
00
00
60
F0
F0
F0
F0
F0
F0
F0
60
60
60
60
60
00
00
00
00
00
60
F0
F0
60
00
00
00
00
00
00
ENDCHAR
STARTCHAR char34
ENCODING 34
SWIDTH 1170 0
DWIDTH 13 0
BBX 9 31 1 -6
BITMAP
0000
0000
0000
E380
E380
E380
E380
E380
E380
E380
4100
0000
0000
0000
0000
0000
0000
0000
0000
0000
0000
0000
0000
0000
0000
0000
0000
0000
0000
0000
0000
ENDCHAR
STARTCHAR char35
ENCODING 35
SWIDTH 1440 0
DWIDTH 16 0
BBX 13 31 0 -6
BITMAP
0000
0000
0000
0000
0000
0000
0000
0000
0000
0000
0000
18C0
18C0
18C0
FFF8
FFF8
18C0
18C0
18C0
FFF8
FFF8
18C0
18C0
18C0
0000
0000
0000
0000
0000
0000
0000
ENDCHAR
STARTCHAR char36
ENCODING 36
SWIDTH 1350 0
DWIDTH 15 0
BBX 11 31 1 -6
BITMAP
0000
1B00
1B00
3F80
7FC0
DB60
DB60
DB60
DB60
DB60
DB00
FB00
FB00
7F00
3F00
1FC0
1BE0
1BE0
DB60
DB60
DB60
DB60
DB60
7FC0
3F80
1B00
1B00
0000
0000
0000
0000
ENDCHAR
STARTCHAR char37
ENCODING 37
SWIDTH 1530 0
DWIDTH 17 0
BBX 14 31 0 -6
BITMAP
0000
0000
0000
781C
FC38
CC30
CC70
CC60
FCE0
78C0
01C0
0180
0380
0300
0700
0600
0E00
0C00
1C78
18FC
38CC
30CC
70CC
60FC
E078
0000
0000
0000
0000
0000
0000
ENDCHAR
STARTCHAR char38
ENCODING 38
SWIDTH 1980 0
DWIDTH 22 0
BBX 19 31 0 -6
BITMAP
000000
000000
03F000
0FFC00
0E3C00
1C1E00
1C1C00
1E1C00
1E3800
0F7000
0FC000
0F83E0
3F81C0
7FC1C0
71E1C0
E0E1C0
E0F380
E07380
E07B00
E03E00
E01E00
E01E00
703F00
7FF780
1FC3C0
000000
000000
000000
000000
000000
000000
ENDCHAR
STARTCHAR char39
ENCODING 39
SWIDTH 630 0
DWIDTH 7 0
BBX 5 31 0 -6
BITMAP
00
00
00
F8
F8
78
18
18
38
70
E0
00
00
00
00
00
00
00
00
00
00
00
00
00
00
00
00
00
00
00
00
ENDCHAR
STARTCHAR char40
ENCODING 40
SWIDTH 900 0
DWIDTH 10 0
BBX 6 31 1 -6
BITMAP
00
04
0C
18
30
30
60
60
60
E0
C0
C0
C0
C0
C0
C0
C0
C0
C0
E0
60
60
60
30
30
18
0C
04
00
00
00
ENDCHAR
STARTCHAR char41
ENCODING 41
SWIDTH 900 0
DWIDTH 10 0
BBX 6 31 1 -6
BITMAP
00
80
C0
60
30
30
18
18
18
1C
0C
0C
0C
0C
0C
0C
0C
0C
0C
1C
18
18
18
30
30
60
C0
80
00
00
00
ENDCHAR
STARTCHAR char42
ENCODING 42
SWIDTH 1800 0
DWIDTH 20 0
BBX 17 31 0 -6
BITMAP
000000
000000
000000
000000
000000
000000
01C000
01C000
E1C380
F1C780
79CF00
1DDC00
0FF800
07F000
01C000
07F000
0FF800
1DDC00
79CF00
F1C780
E1C380
01C000
01C000
000000
000000
000000
000000
000000
000000
000000
000000
ENDCHAR
STARTCHAR char43
ENCODING 43
SWIDTH 1260 0
DWIDTH 14 0
BBX 12 31 0 -6
BITMAP
0000
0000
0000
0000
0000
0000
0000
0000
0000
0000
0600
0600
0600
0600
0600
FFF0
FFF0
0600
0600
0600
0600
0600
0000
0000
0000
0000
0000
0000
0000
0000
0000
ENDCHAR
STARTCHAR char44
ENCODING 44
SWIDTH 630 0
DWIDTH 7 0
BBX 5 31 0 -6
BITMAP
00
00
00
00
00
00
00
00
00
00
00
00
00
00
00
00
00
00
00
00
00
70
F8
F8
18
18
18
38
30
70
E0
ENDCHAR
STARTCHAR char45
ENCODING 45
SWIDTH 1260 0
DWIDTH 14 0
BBX 12 31 0 -6
BITMAP
0000
0000
0000
0000
0000
0000
0000
0000
0000
0000
0000
0000
0000
0000
0000
FFF0
FFF0
0000
0000
0000
0000
0000
0000
0000
0000
0000
0000
0000
0000
0000
0000
ENDCHAR
STARTCHAR char46
ENCODING 46
SWIDTH 540 0
DWIDTH 6 0
BBX 4 31 0 -6
BITMAP
00
00
00
00
00
00
00
00
00
00
00
00
00
00
00
00
00
00
00
00
00
F0
F0
F0
F0
00
00
00
00
00
00
ENDCHAR
STARTCHAR char47
ENCODING 47
SWIDTH 1800 0
DWIDTH 20 0
BBX 17 31 0 -6
BITMAP
000380
000700
000700
000E00
000E00
001C00
001C00
003800
003800
007000
007000
00E000
00E000
01C000
01C000
038000
038000
070000
070000
0E0000
0E0000
1C0000
1C0000
380000
380000
700000
700000
E00000
000000
000000
000000
ENDCHAR
STARTCHAR char48
ENCODING 48
SWIDTH 1260 0
DWIDTH 14 0
BBX 11 31 0 -6
BITMAP
0000
0000
0000
0E00
3F80
3180
60C0
60C0
C1E0
C1E0
C360
C760
C660
CE60
CC60
DC60
D860
F860
F060
E060
60C0
60C0
3180
3F80
0E00
0000
0000
0000
0000
0000
0000
ENDCHAR
STARTCHAR char49
ENCODING 49
SWIDTH 1260 0
DWIDTH 14 0
BBX 11 31 0 -6
BITMAP
0000
0000
0000
0E00
1E00
3E00
7E00
0E00
0E00
0E00
0E00
0E00
0E00
0E00
0E00
0E00
0E00
0E00
0E00
0E00
0E00
0E00
0E00
FFE0
FFE0
0000
0000
0000
0000
0000
0000
ENDCHAR
STARTCHAR char50
ENCODING 50
SWIDTH 1260 0
DWIDTH 14 0
BBX 11 31 0 -6
BITMAP
0000
0000
0000
1F00
3F80
7180
60C0
60C0
60C0
60C0
60C0
70C0
00C0
00C0
00C0
0180
0300
0600
0C00
1800
3820
7020
E060
FFE0
FFE0
0000
0000
0000
0000
0000
0000
ENDCHAR
STARTCHAR char51
ENCODING 51
SWIDTH 1260 0
DWIDTH 14 0
BBX 11 31 0 -6
BITMAP
0000
0000
0000
0E00
3F80
70C0
60C0
60C0
00C0
00C0
00C0
01C0
0380
0F80
0F80
01C0
00E0
0060
0060
0060
C060
C060
E0C0
FFC0
3F00
0000
0000
0000
0000
0000
0000
ENDCHAR
STARTCHAR char52
ENCODING 52
SWIDTH 1260 0
DWIDTH 14 0
BBX 11 31 0 -6
BITMAP
0000
0000
0000
0100
0100
0300
0300
0700
0700
0F00
0F00
1B00
1B00
3300
3300
6300
6300
C320
FFE0
FFE0
0320
0300
0300
0300
0FC0
0000
0000
0000
0000
0000
0000
ENDCHAR
STARTCHAR char53
ENCODING 53
SWIDTH 1260 0
DWIDTH 14 0
BBX 11 31 0 -6
BITMAP
0000
0000
0000
1F80
3F80
7080
7000
6000
6000
6000
6000
6000
7C00
7F00
0380
01C0
00C0
0060
0060
0060
C0E0
C0C0
E1C0
FF80
7E00
0000
0000
0000
0000
0000
0000
ENDCHAR
STARTCHAR char54
ENCODING 54
SWIDTH 1260 0
DWIDTH 14 0
BBX 11 31 0 -6
BITMAP
0000
0000
0000
01E0
0F80
1E00
3800
7000
7000
E000
E000
E000
FF00
FFC0
E0C0
E060
E060
E060
E060
E060
E060
6060
70C0
3FC0
0F00
0000
0000
0000
0000
0000
0000
ENDCHAR
STARTCHAR char55
ENCODING 55
SWIDTH 1260 0
DWIDTH 14 0
BBX 11 31 0 -6
BITMAP
0000
0000
0000
7FE0
7FE0
E060
E060
C060
C0C0
00C0
00C0
00C0
0180
0180
0180
0180
0180
0180
0380
0300
0300
0300
0300
0300
0300
0000
0000
0000
0000
0000
0000
ENDCHAR
STARTCHAR char56
ENCODING 56
SWIDTH 1260 0
DWIDTH 14 0
BBX 11 31 0 -6
BITMAP
0000
0000
0000
0E00
3F80
7180
60C0
60C0
60C0
60C0
60C0
71C0
3180
3F80
3F80
71C0
60C0
E0E0
E0E0
E0E0
E0E0
E0E0
60C0
7FC0
1F00
0000
0000
0000
0000
0000
0000
ENDCHAR
STARTCHAR char57
ENCODING 57
SWIDTH 1260 0
DWIDTH 14 0
BBX 11 31 0 -6
BITMAP
0000
0000
0000
1E00
7F80
6180
C0C0
C0C0
C0E0
C0E0
C0E0
C0E0
C0E0
7FE0
3FE0
00E0
00E0
00E0
00E0
01C0
01C0
0380
0F00
3E00
F000
0000
0000
0000
0000
0000
0000
ENDCHAR
STARTCHAR char58
ENCODING 58
SWIDTH 720 0
DWIDTH 8 0
BBX 5 31 1 -6
BITMAP
00
00
00
00
00
00
00
00
00
00
00
70
F8
F8
70
00
00
00
00
00
00
70
F8
F8
70
00
00
00
00
00
00
ENDCHAR
STARTCHAR char59
ENCODING 59
SWIDTH 720 0
DWIDTH 8 0
BBX 5 31 1 -6
BITMAP
00
00
00
00
00
00
00
00
00
00
00
70
F8
F8
70
00
00
00
00
00
00
70
F8
F8
18
18
18
38
30
70
E0
ENDCHAR
STARTCHAR char60
ENCODING 60
SWIDTH 1620 0
DWIDTH 18 0
BBX 15 31 0 -6
BITMAP
0000
0000
0000
0000
0000
0000
0000
000E
003C
00F0
03C0
0F00
3C00
7000
E000
E000
7000
3C00
0F00
03C0
00F0
003C
000E
0000
0000
0000
0000
0000
0000
0000
0000
ENDCHAR
STARTCHAR char61
ENCODING 61
SWIDTH 1260 0
DWIDTH 14 0
BBX 11 31 0 -6
BITMAP
0000
0000
0000
0000
0000
0000
0000
0000
0000
0000
FFE0
FFE0
FFE0
0000
0000
FFE0
FFE0
FFE0
0000
0000
0000
0000
0000
0000
0000
0000
0000
0000
0000
0000
0000
ENDCHAR
STARTCHAR char62
ENCODING 62
SWIDTH 1800 0
DWIDTH 20 0
BBX 15 31 2 -6
BITMAP
0000
0000
0000
0000
0000
0000
0000
E000
7800
1E00
0780
01E0
0078
001C
000E
000E
001C
0078
01E0
0780
1E00
7800
E000
0000
0000
0000
0000
0000
0000
0000
0000
ENDCHAR
STARTCHAR char63
ENCODING 63
SWIDTH 1170 0
DWIDTH 13 0
BBX 11 31 0 -6
BITMAP
0000
0000
3F80
7FC0
E0E0
E0E0
E0E0
E1E0
01E0
03E0
07C0
0F80
0F00
0E00
0C00
0C00
0C00
0C00
0000
0000
0000
0C00
1E00
1E00
0C00
0000
0000
0000
0000
0000
0000
ENDCHAR
STARTCHAR char64
ENCODING 64
SWIDTH 1980 0
DWIDTH 22 0
BBX 19 31 0 -6
BITMAP
000000
000000
000000
000000
000000
03FC00
0FFF00
3FFF80
3803C0
7001C0
60F0E0
E3FCE0
E31CE0
E60CE0
E60CE0
E60CE0
E60CE0
E60CC0
E31DC0
63FF00
60FC60
700060
3801C0
1FFF00
07FC00
000000
000000
000000
000000
000000
000000
ENDCHAR
STARTCHAR char65
ENCODING 65
SWIDTH 1980 0
DWIDTH 22 0
BBX 19 31 0 -6
BITMAP
000000
000000
000000
004000
006000
006000
00E000
00E000
00F000
01F000
01F000
01B800
033800
031800
061C00
061C00
0C0E00
0FFE00
0FFE00
1C0700
180700
180300
380380
380380
FE0FE0
000000
000000
000000
000000
000000
000000
ENDCHAR
STARTCHAR char66
ENCODING 66
SWIDTH 1530 0
DWIDTH 17 0
BBX 14 31 0 -6
BITMAP
0000
0000
0000
FFC0
1FF0
1C30
1C18
1C18
1C18
1C18
1C30
1C70
1FE0
1FE0
1FF0
1C38
1C18
1C0C
1C0C
1C0C
1C0C
1C18
1C38
1FF0
FFC0
0000
0000
0000
0000
0000
0000
ENDCHAR
STARTCHAR char67
ENCODING 67
SWIDTH 1800 0
DWIDTH 20 0
BBX 17 31 0 -6
BITMAP
000000
000000
000000
07F800
1FFE00
3C0F00
380700
700300
600300
E00000
E00000
E00000
E00000
E00000
E00000
E00000
E00000
E00000
E00180
600180
700380
380380
1C0780
0FFF80
03FF00
000000
000000
000000
000000
000000
000000
ENDCHAR
STARTCHAR char68
ENCODING 68
SWIDTH 1980 0
DWIDTH 22 0
BBX 19 31 0 -6
BITMAP
000000
000000
000000
FFF800
3FFE00
380700
380380
380380
3801C0
3801C0
3800C0
3800E0
3800E0
3800E0
3800E0
3800E0
3800E0
3800C0
3801C0
3801C0
380380
380380
380700
3FFE00
FFF800
000000
000000
000000
000000
000000
000000
ENDCHAR
STARTCHAR char69
ENCODING 69
SWIDTH 1620 0
DWIDTH 18 0
BBX 15 31 0 -6
BITMAP
0000
0000
0000
FFFC
3FFC
380C
380C
3800
3800
3800
3880
3880
3980
3F80
3F80
3980
3880
3880
3800
3800
3800
3806
3806
3FFE
FFFE
0000
0000
0000
0000
0000
0000
ENDCHAR
STARTCHAR char70
ENCODING 70
SWIDTH 1530 0
DWIDTH 17 0
BBX 14 31 0 -6
BITMAP
0000
0000
0000
FFFC
3FFC
380C
380C
3800
3800
3800
3880
3880
3980
3F80
3F80
3980
3880
3880
3800
3800
3800
3800
3800
3800
FE00
0000
0000
0000
0000
0000
0000
ENDCHAR
STARTCHAR char71
ENCODING 71
SWIDTH 1800 0
DWIDTH 20 0
BBX 18 31 0 -6
BITMAP
000000
000000
000000
07F800
1FFC00
3C1C00
780E00
700600
E00600
E00600
E00600
E00000
E00000
E00000
E00000
E00000
E00000
E03FC0
E00F00
E00E00
E00E00
700E00
783C00
3FF800
0FF000
000000
000000
000000
000000
000000
000000
ENDCHAR
STARTCHAR char72
ENCODING 72
SWIDTH 1710 0
DWIDTH 19 0
BBX 17 31 0 -6
BITMAP
000000
000000
000000
FE3F80
380E00
380E00
380E00
380E00
380E00
380E00
380E00
380E00
380E00
3FFE00
3FFE00
380E00
380E00
380E00
380E00
380E00
380E00
380E00
380E00
380E00
FE3F80
000000
000000
000000
000000
000000
000000
ENDCHAR
STARTCHAR char73
ENCODING 73
SWIDTH 810 0
DWIDTH 9 0
BBX 7 31 0 -6
BITMAP
00
00
00
FE
38
38
38
38
38
38
38
38
38
38
38
38
38
38
38
38
38
38
38
38
FE
00
00
00
00
00
00
ENDCHAR
STARTCHAR char74
ENCODING 74
SWIDTH 1170 0
DWIDTH 13 0
BBX 11 31 0 -6
BITMAP
0000
0000
0000
0FE0
0380
0380
0380
0380
0380
0380
0380
0380
0380
0380
0380
0380
0380
0380
0380
0380
0380
0380
0380
E380
E380
FF00
7E00
0000
0000
0000
0000
ENDCHAR
STARTCHAR char75
ENCODING 75
SWIDTH 1710 0
DWIDTH 19 0
BBX 17 31 0 -6
BITMAP
000000
000000
000000
FE3F80
380E00
381C00
383800
387000
38E000
39C000
3B8000
3F0000
3E0000
3E0000
3E0000
3F0000
3B8000
39C000
38E000
386000
387000
383800
381800
381C00
FE7F00
000000
000000
000000
000000
000000
000000
ENDCHAR
STARTCHAR char76
ENCODING 76
SWIDTH 1530 0
DWIDTH 17 0
BBX 14 31 0 -6
BITMAP
0000
0000
0000
FE00
3800
3800
3800
3800
3800
3800
3800
3800
3800
3800
3800
3800
3800
3800
3800
380C
380C
380C
381C
3FFC
FFFC
0000
0000
0000
0000
0000
0000
ENDCHAR
STARTCHAR char77
ENCODING 77
SWIDTH 2250 0
DWIDTH 25 0
BBX 23 31 0 -6
BITMAP
000000
000000
000000
FF00FE
3F00F8
3F00F8
3F81F8
3F81F8
3B83B8
3BC3B8
39C3B8
39C738
39C738
38E738
38EF38
38EE38
386E38
387E38
387E38
387E38
383C38
383C38
381838
381838
FE18FE
000000
000000
000000
000000
000000
000000
ENDCHAR
STARTCHAR char78
ENCODING 78
SWIDTH 1800 0
DWIDTH 20 0
BBX 17 31 0 -6
BITMAP
000000
000000
000000
FC0F80
7C0700
7E0700
7E0700
7F0700
770700
778700
738700
73C700
71C700
71E700
70E700
70F700
707700
707F00
703F00
703F00
701F00
701F00
700F00
700700
F80F80
000000
000000
000000
000000
000000
000000
ENDCHAR
STARTCHAR char79
ENCODING 79
SWIDTH 2160 0
DWIDTH 24 0
BBX 21 31 0 -6
BITMAP
000000
000000
000000
01FC00
07FF00
1F07C0
1C01C0
3800E0
300060
700070
600030
600030
E00038
E00038
E00038
E00038
600030
600030
700070
300060
3800E0
1C01C0
1F07C0
07FF00
01FC00
000000
000000
000000
000000
000000
000000
ENDCHAR
STARTCHAR char80
ENCODING 80
SWIDTH 1440 0
DWIDTH 16 0
BBX 13 31 0 -6
BITMAP
0000
0000
0000
FFC0
3FE0
3870
3838
3838
3838
3838
3838
3838
3870
3FE0
3FC0
3800
3800
3800
3800
3800
3800
3800
3800
3800
FE00
0000
0000
0000
0000
0000
0000
ENDCHAR
STARTCHAR char81
ENCODING 81
SWIDTH 2160 0
DWIDTH 24 0
BBX 21 31 0 -6
BITMAP
000000
000000
000000
01FC00
07FF00
1F07C0
1C01C0
3800E0
300060
700070
600030
600030
E00038
E00038
E00038
E00038
600030
600030
700070
300060
3800E0
1C01C0
1F07C0
07FF00
01FC00
007000
007800
003E00
001FE0
0007E0
000000
ENDCHAR
STARTCHAR char82
ENCODING 82
SWIDTH 1620 0
DWIDTH 18 0
BBX 16 31 0 -6
BITMAP
0000
0000
0000
FFC0
3FF0
3870
3838
3838
3838
3838
3830
3870
3FE0
3FE0
3FE0
38E0
38F0
3870
3878
3838
3838
383C
381C
381C
FE1F
0000
0000
0000
0000
0000
0000
ENDCHAR
STARTCHAR char83
ENCODING 83
SWIDTH 1350 0
DWIDTH 15 0
BBX 12 31 0 -6
BITMAP
0000
0000
0000
1F80
7FE0
F0F0
E070
E030
E030
7000
7800
3C00
1E00
0F00
0780
03C0
01E0
00E0
0070
C070
C070
C070
E0E0
7FC0
3F80
0000
0000
0000
0000
0000
0000
ENDCHAR
STARTCHAR char84
ENCODING 84
SWIDTH 1800 0
DWIDTH 20 0
BBX 17 31 0 -6
BITMAP
000000
000000
000000
FFFF80
F1C780
E1C380
C1C180
81C080
81C080
01C000
01C000
01C000
01C000
01C000
01C000
01C000
01C000
01C000
01C000
01C000
01C000
01C000
01C000
01C000
07F000
000000
000000
000000
000000
000000
000000
ENDCHAR
STARTCHAR char85
ENCODING 85
SWIDTH 1890 0
DWIDTH 21 0
BBX 18 31 1 -6
BITMAP
000000
000000
000000
FE0FC0
380300
380300
380300
380300
380300
380300
380300
380300
380300
380300
380300
380300
380300
380300
380300
380300
380300
380300
3C0700
1FFE00
0FFC00
000000
000000
000000
000000
000000
000000
ENDCHAR
STARTCHAR char86
ENCODING 86
SWIDTH 1890 0
DWIDTH 21 0
BBX 18 31 1 -6
BITMAP
000000
000000
000000
FE0FC0
380300
380300
3C0300
3C0600
1C0600
1C0600
1E0E00
0E0C00
0E0C00
0F1C00
071800
071800
03B800
03B000
03F000
01F000
01E000
01E000
00E000
00C000
00C000
000000
000000
000000
000000
000000
000000
ENDCHAR
STARTCHAR char87
ENCODING 87
SWIDTH 2430 0
DWIDTH 27 0
BBX 25 31 0 -6
BITMAP
00000000
00000000
00000000
FEFBDF80
38730600
38730600
3C7B0600
3C7E0C00
1C3E0C00
1C3E0C00
1E3E1C00
0E1C1800
0E1C1800
0F1E3800
071E3000
071E3000
03BF7000
03B76000
03F7E000
01F3E000
01E3C000
01E3C000
00E1C000
00C18000
00C18000
00000000
00000000
00000000
00000000
00000000
00000000
ENDCHAR
STARTCHAR char88
ENCODING 88
SWIDTH 1800 0
DWIDTH 20 0
BBX 18 31 0 -6
BITMAP
000000
000000
000000
FF0FC0
3C0300
1C0300
1E0600
0E0600
0F0C00
071800
079800
03F000
03F000
01E000
01E000
01F000
03F000
037800
063800
063C00
0C1C00
181E00
180E00
380F00
FE3FC0
000000
000000
000000
000000
000000
000000
ENDCHAR
STARTCHAR char89
ENCODING 89
SWIDTH 1710 0
DWIDTH 19 0
BBX 17 31 0 -6
BITMAP
000000
000000
000000
FF1F80
3C0600
1C0600
1E0C00
0E0C00
0F1800
073000
073000
03E000
03E000
01C000
01C000
01C000
01C000
01C000
01C000
01C000
01C000
01C000
01C000
01C000
07F000
000000
000000
000000
000000
000000
000000
ENDCHAR
STARTCHAR char90
ENCODING 90
SWIDTH 1710 0
DWIDTH 19 0
BBX 16 31 0 -6
BITMAP
0000
0000
0000
FFFF
F00F
E01E
C01C
803C
0078
0070
00F0
01E0
01C0
03C0
0780
0700
0F00
0E00
1E00
1C00
3801
7803
7007
F00F
FFFF
0000
0000
0000
0000
0000
0000
ENDCHAR
STARTCHAR char91
ENCODING 91
SWIDTH 810 0
DWIDTH 9 0
BBX 7 31 0 -6
BITMAP
FE
FE
E0
C0
C0
C0
C0
C0
C0
C0
C0
C0
C0
C0
C0
C0
C0
C0
C0
C0
C0
C0
C0
C0
C0
E0
FE
FE
00
00
00
ENDCHAR
STARTCHAR char92
ENCODING 92
SWIDTH 1800 0
DWIDTH 20 0
BBX 17 31 0 -6
BITMAP
E00000
700000
700000
380000
380000
1C0000
1C0000
0E0000
0E0000
070000
070000
038000
038000
01C000
01C000
00E000
00E000
007000
007000
003800
003800
001C00
001C00
000E00
000E00
000700
000700
000380
000000
000000
000000
ENDCHAR
STARTCHAR char93
ENCODING 93
SWIDTH 810 0
DWIDTH 9 0
BBX 7 31 0 -6
BITMAP
FE
FE
0E
06
06
06
06
06
06
06
06
06
06
06
06
06
06
06
06
06
06
06
06
06
06
0E
FE
FE
00
00
00
ENDCHAR
STARTCHAR char94
ENCODING 94
SWIDTH 1710 0
DWIDTH 19 0
BBX 17 31 0 -6
BITMAP
008000
01C000
03E000
07F000
0E3800
1C1C00
380E00
700700
E00380
000000
000000
000000
000000
000000
000000
000000
000000
000000
000000
000000
000000
000000
000000
000000
000000
000000
000000
000000
000000
000000
000000
ENDCHAR
STARTCHAR char95
ENCODING 95
SWIDTH 1350 0
DWIDTH 15 0
BBX 15 31 0 -6
BITMAP
0000
0000
0000
0000
0000
0000
0000
0000
0000
0000
0000
0000
0000
0000
0000
0000
0000
0000
0000
0000
0000
0000
0000
0000
0000
FFFE
FFFE
0000
0000
0000
0000
ENDCHAR
STARTCHAR char96
ENCODING 96
SWIDTH 630 0
DWIDTH 7 0
BBX 5 31 0 -6
BITMAP
00
00
00
38
70
E0
C0
C0
F0
F8
F8
00
00
00
00
00
00
00
00
00
00
00
00
00
00
00
00
00
00
00
00
ENDCHAR
STARTCHAR char97
ENCODING 97
SWIDTH 1170 0
DWIDTH 13 0
BBX 10 31 0 -6
BITMAP
0000
0000
0000
0000
0000
0000
0000
0000
0000
0000
0000
3C00
7E00
C700
C300
0380
0380
1F80
7F80
7380
C380
C3C0
C3C0
7FC0
3EC0
0000
0000
0000
0000
0000
0000
ENDCHAR
STARTCHAR char98
ENCODING 98
SWIDTH 1350 0
DWIDTH 15 0
BBX 12 31 0 -6
BITMAP
0000
0000
0000
F000
7000
7000
7000
7000
7000
7000
7000
7380
7FE0
7FE0
78F0
7070
7070
7070
7070
7070
7070
7070
78E0
7FE0
FF80
0000
0000
0000
0000
0000
0000
ENDCHAR
STARTCHAR char99
ENCODING 99
SWIDTH 1260 0
DWIDTH 14 0
BBX 11 31 0 -6
BITMAP
0000
0000
0000
0000
0000
0000
0000
0000
0000
0000
0000
0700
1FC0
7FE0
78E0
F0E0
E000
E000
E000
E000
E000
F060
78E0
7FC0
1F80
0000
0000
0000
0000
0000
0000
ENDCHAR
STARTCHAR char100
ENCODING 100
SWIDTH 1350 0
DWIDTH 15 0
BBX 12 31 0 -6
BITMAP
0000
0000
0000
00F0
00E0
00E0
00E0
00E0
00E0
00E0
00E0
1CE0
7FE0
7FE0
F1E0
E0E0
E0E0
E0E0
E0E0
E0E0
E0E0
E0E0
71E0
7FE0
1FF0
0000
0000
0000
0000
0000
0000
ENDCHAR
STARTCHAR char101
ENCODING 101
SWIDTH 1350 0
DWIDTH 15 0
BBX 12 31 0 -6
BITMAP
0000
0000
0000
0000
0000
0000
0000
0000
0000
0000
0000
0F00
3FC0
38E0
7060
6070
E070
FFF0
FFE0
E000
6000
7030
3860
3FC0
0F00
0000
0000
0000
0000
0000
0000
ENDCHAR
STARTCHAR char102
ENCODING 102
SWIDTH 990 0
DWIDTH 11 0
BBX 9 31 0 -6
BITMAP
0000
0000
0000
1F00
1B80
3380
3100
3000
7000
7000
7000
7000
FC00
7800
7000
7000
7000
7000
7000
7000
7000
7000
7000
7000
FC00
0000
0000
0000
0000
0000
0000
ENDCHAR
STARTCHAR char103
ENCODING 103
SWIDTH 1260 0
DWIDTH 14 0
BBX 12 31 0 -6
BITMAP
0000
0000
0000
0000
0000
0000
0000
0000
0000
0000
0000
3F70
7FF0
F3C0
E1C0
E1C0
E1C0
E1C0
E1C0
FF80
7E00
7000
7000
7FC0
FFE0
E0E0
C060
E0E0
7FC0
1F00
0000
ENDCHAR
STARTCHAR char104
ENCODING 104
SWIDTH 1350 0
DWIDTH 15 0
BBX 13 31 0 -6
BITMAP
0000
0000
0000
7000
7000
7000
7000
7000
7000
7000
7000
7380
77C0
7FC0
78E0
7860
7070
7070
7070
7070
7070
7070
7070
7070
F8F8
0000
0000
0000
0000
0000
0000
ENDCHAR
STARTCHAR char105
ENCODING 105
SWIDTH 720 0
DWIDTH 8 0
BBX 6 31 0 -6
BITMAP
00
00
00
00
60
F0
60
00
00
00
00
F0
70
70
70
70
70
70
70
70
70
70
70
70
FC
00
00
00
00
00
00
ENDCHAR
STARTCHAR char106
ENCODING 106
SWIDTH 900 0
DWIDTH 10 0
BBX 7 31 0 -6
BITMAP
00
00
00
00
0C
1E
0C
00
00
00
00
7E
0E
0E
0E
0E
0E
0E
0E
0E
0E
0E
0E
0E
0E
0E
8E
CC
DC
78
00
ENDCHAR
STARTCHAR char107
ENCODING 107
SWIDTH 1440 0
DWIDTH 16 0
BBX 14 31 0 -6
BITMAP
0000
0000
0000
F800
7000
7000
7000
7000
7000
7000
7000
70F8
7070
70E0
71C0
7380
7700
7E00
7E00
7F00
7380
71C0
70E0
7070
F8FC
0000
0000
0000
0000
0000
0000
ENDCHAR
STARTCHAR char108
ENCODING 108
SWIDTH 720 0
DWIDTH 8 0
BBX 6 31 0 -6
BITMAP
00
00
00
F0
70
70
70
70
70
70
70
70
70
70
70
70
70
70
70
70
70
70
70
78
FC
00
00
00
00
00
00
ENDCHAR
STARTCHAR char109
ENCODING 109
SWIDTH 1890 0
DWIDTH 21 0
BBX 19 31 0 -6
BITMAP
000000
000000
000000
000000
000000
000000
000000
000000
000000
000000
000000
F38F00
77FF80
7EF180
7CE1C0
78E1C0
70E1C0
70E1C0
70E1C0
70E1C0
70E1C0
70E1C0
70E1C0
70E1C0
F8E3E0
000000
000000
000000
000000
000000
000000
ENDCHAR
STARTCHAR char110
ENCODING 110
SWIDTH 1350 0
DWIDTH 15 0
BBX 13 31 0 -6
BITMAP
0000
0000
0000
0000
0000
0000
0000
0000
0000
0000
0000
F780
7FC0
7CE0
7860
7870
7070
7070
7070
7070
7070
7070
7070
7070
F8F8
0000
0000
0000
0000
0000
0000
ENDCHAR
STARTCHAR char111
ENCODING 111
SWIDTH 1440 0
DWIDTH 16 0
BBX 13 31 0 -6
BITMAP
0000
0000
0000
0000
0000
0000
0000
0000
0000
0000
0000
0700
1FC0
3FE0
78F0
7070
E038
E038
E038
E038
7070
78F0
3FE0
1FC0
0700
0000
0000
0000
0000
0000
0000
ENDCHAR
STARTCHAR char112
ENCODING 112
SWIDTH 1260 0
DWIDTH 14 0
BBX 11 31 0 -6
BITMAP
0000
0000
0000
0000
0000
0000
0000
0000
0000
0000
0000
E700
7FC0
7FE0
71E0
70E0
70E0
70E0
70E0
70E0
70E0
79E0
7FC0
7780
7300
7000
7000
7000
7000
7000
F800
ENDCHAR
STARTCHAR char113
ENCODING 113
SWIDTH 1260 0
DWIDTH 14 0
BBX 11 31 0 -6
BITMAP
0000
0000
0000
0000
0000
0000
0000
0000
0000
0000
0000
1CE0
7FC0
FFC0
F1C0
E1C0
E1C0
E1C0
E1C0
E1C0
E1C0
F3C0
7FC0
3DC0
19C0
01C0
01C0
01C0
01C0
01C0
03E0
ENDCHAR
STARTCHAR char114
ENCODING 114
SWIDTH 1170 0
DWIDTH 13 0
BBX 10 31 0 -6
BITMAP
0000
0000
0000
0000
0000
0000
0000
0000
0000
0000
0000
F1C0
3FC0
3FC0
3C00
3800
3800
3800
3800
3800
3800
3800
3800
3800
FE00
0000
0000
0000
0000
0000
0000
ENDCHAR
STARTCHAR char115
ENCODING 115
SWIDTH 1170 0
DWIDTH 13 0
BBX 10 31 0 -6
BITMAP
0000
0000
0000
0000
0000
0000
0000
0000
0000
0000
0000
1E00
7F80
F1C0
C0C0
E000
7000
3C00
1F00
0780
01C0
C0C0
E1C0
7F80
1F00
0000
0000
0000
0000
0000
0000
ENDCHAR
STARTCHAR char116
ENCODING 116
SWIDTH 1080 0
DWIDTH 12 0
BBX 10 31 0 -6
BITMAP
0000
0000
0000
0000
0000
0000
0000
0800
0800
1800
1800
3C00
FF00
3800
3800
3800
3800
3800
3800
3800
3800
38C0
1F80
1F00
0C00
0000
0000
0000
0000
0000
0000
ENDCHAR
STARTCHAR char117
ENCODING 117
SWIDTH 1350 0
DWIDTH 15 0
BBX 13 31 0 -6
BITMAP
0000
0000
0000
0000
0000
0000
0000
0000
0000
0000
0000
F0F0
7070
7070
7070
7070
7070
7070
7070
7070
70F0
30F0
39F0
1FF0
0F78
0000
0000
0000
0000
0000
0000
ENDCHAR
STARTCHAR char118
ENCODING 118
SWIDTH 1440 0
DWIDTH 16 0
BBX 14 31 0 -6
BITMAP
0000
0000
0000
0000
0000
0000
0000
0000
0000
0000
0000
F83C
7018
7030
3830
3860
3860
1C60
1CC0
1EC0
0EC0
0780
0780
0300
0300
0000
0000
0000
0000
0000
0000
ENDCHAR
STARTCHAR char119
ENCODING 119
SWIDTH 2070 0
DWIDTH 23 0
BBX 21 31 0 -6
BITMAP
000000
000000
000000
000000
000000
000000
000000
000000
000000
000000
000000
F80078
702030
706060
387060
3870C0
3870C0
1CF8C0
1CF980
1EDD80
0EDD80
078F00
078F00
030600
030600
000000
000000
000000
000000
000000
000000
ENDCHAR
STARTCHAR char120
ENCODING 120
SWIDTH 1350 0
DWIDTH 15 0
BBX 13 31 0 -6
BITMAP
0000
0000
0000
0000
0000
0000
0000
0000
0000
0000
0000
F8F8
7070
3060
38C0
1DC0
0F80
0700
0700
0F80
1980
18C0
30E0
7060
F8F0
0000
0000
0000
0000
0000
0000
ENDCHAR
STARTCHAR char121
ENCODING 121
SWIDTH 1440 0
DWIDTH 16 0
BBX 14 31 0 -6
BITMAP
0000
0000
0000
0000
0000
0000
0000
0000
0000
0000
0000
F83C
7018
7030
3030
3830
3820
1C60
1C60
0EC0
0FC0
07C0
0780
0780
0700
0600
0600
0C00
7800
7000
0000
ENDCHAR
STARTCHAR char122
ENCODING 122
SWIDTH 1260 0
DWIDTH 14 0
BBX 11 31 0 -6
BITMAP
0000
0000
0000
0000
0000
0000
0000
0000
0000
0000
0000
FFC0
FFC0
C380
8700
0700
0E00
0E00
1C00
1C00
3820
3820
7060
FFE0
FFE0
0000
0000
0000
0000
0000
0000
ENDCHAR
STARTCHAR char123
ENCODING 123
SWIDTH 1170 0
DWIDTH 13 0
BBX 9 31 1 -6
BITMAP
0780
0E00
1800
3800
3800
3800
3800
1800
1800
1800
1800
1000
3000
6000
E000
E000
6000
3000
1000
1800
1800
1800
1800
3800
3800
3800
3800
1800
0E00
0780
0000
ENDCHAR
STARTCHAR char124
ENCODING 124
SWIDTH 630 0
DWIDTH 7 0
BBX 2 31 2 -6
BITMAP
C0
C0
C0
C0
C0
C0
C0
C0
C0
C0
C0
C0
C0
C0
C0
C0
C0
C0
C0
C0
C0
C0
C0
C0
C0
C0
C0
C0
C0
C0
00
ENDCHAR
STARTCHAR char125
ENCODING 125
SWIDTH 1170 0
DWIDTH 13 0
BBX 9 31 1 -6
BITMAP
F000
3800
0C00
0E00
0E00
0E00
0E00
0C00
0C00
0C00
0C00
0400
0600
0300
0380
0380
0300
0600
0400
0C00
0C00
0C00
0C00
0E00
0E00
0E00
0E00
0C00
3800
F000
0000
ENDCHAR
STARTCHAR char126
ENCODING 126
SWIDTH 1800 0
DWIDTH 20 0
BBX 17 31 0 -6
BITMAP
000000
000000
000000
000000
000000
000000
000000
000000
000000
000000
000000
0E0080
1F0180
3F8180
7FC300
61FF00
C0FE00
C07C00
803800
000000
000000
000000
000000
000000
000000
000000
000000
000000
000000
000000
000000
ENDCHAR
STARTCHAR char127
ENCODING 127
SWIDTH 90 0
DWIDTH 1 0
BBX 1 31 0 -6
BITMAP
00
00
00
00
00
00
00
00
00
00
00
00
00
00
00
00
00
00
00
00
00
00
00
00
00
00
00
00
00
00
00
ENDCHAR
ENDFONT
